<?xml version="1.0" encoding="utf-8"?>
<!-- Generator: Adobe Illustrator 19.2.1, SVG Export Plug-In . SVG Version: 6.00 Build 0)  -->
<svg version="1.1" id="Layer_1" xmlns="http://www.w3.org/2000/svg" xmlns:xlink="http://www.w3.org/1999/xlink" x="0px" y="0px"
	 viewBox="0 0 87.9 66.9" style="enable-background:new 0 0 87.9 66.9;" xml:space="preserve">
<style type="text/css">
	.st0{fill:#FFFFFF;}
	.st1{fill:#FFFFFF;stroke:#FFFFFF;stroke-width:7;stroke-miterlimit:10;}
</style>
<g>
	<path class="st0" d="M84.6,9.1c-3.6,4-8.6,8.8-14.1,13.6c-5.4,4.6-10.9,8.9-15.5,12c-7.3,5-10.1,5.5-11.6,5.5s-4.3-0.6-11.6-5.6
		c-4.6-3.1-10.1-7.4-15.5-12C10.8,17.9,5.8,13.1,2.2,9.1C2,8.9,2,8.7,1.8,8.5C1.8,8.6,2,8.7,2,8.8v49.1c0,3.8,2.7,7,6.4,7h71.1
		c3.8,0,6.4-3.2,6.4-7V8.8c0-0.5,0.1-1,0-1.5C85.5,7.8,85.2,8.5,84.6,9.1z"/>
	<path class="st0" d="M6,5.8c3.4,3.8,8.3,8.5,13.6,13.1c5.2,4.5,10.6,8.6,15,11.7c6.8,4.6,8.7,4.7,8.8,4.7s2-0.1,8.8-4.7
		c4.5-3,9.8-7.2,15-11.7c5.4-4.6,10.2-9.3,13.6-13.1c0.9-1.1,1.7-2,2.4-2.8c-1.1-0.7-2.3-1.1-3.6-1.1H8.4C6.7,1.9,5.2,2.5,4,3.5
		C4.6,4.2,5.2,5,6,5.8z"/>
</g>
<path class="st1" d="M56.8,28.9"/>
</svg>
